<svg xmlns="http://www.w3.org/2000/svg" viewBox="0 0 109 100"><defs><style>.cls-1{fill:#111;}</style></defs><title>pk-ux-black</title><g id="Layer_2" data-name="Layer 2"><g id="Layer_1-2" data-name="Layer 1"><path class="cls-1" d="M109,100H0V0H109ZM4,96H105V4H4Z"/><path class="cls-1" d="M28.84,22.65h8.05a6.24,6.24,0,0,1,6.58,6.5c0,3.92-2.66,6.48-6.58,6.48H34.32v5.19H28.84ZM36,31.29A1.91,1.91,0,0,0,38,29.13C38,27.86,37.35,27,36.1,27H34.32v4.32Z"/><path class="cls-1" d="M63.27,22.65h5.49v6.66H70.1l3.2-6.66h5.88l-4.53,8.74c1.12,2.29,4.07,7.88,4.81,9.43H73.38l-3.28-7H68.76v7H63.27Z"/><path class="cls-1" d="M29,59h5.49V70A2.31,2.31,0,0,0,37,72.57,2.33,2.33,0,0,0,39.52,70V59H45V70.31c0,4.17-3.23,7.12-8.08,7.12s-8-3-8-7.12Z"/><path class="cls-1" d="M68.73,68.08l-5.36-9.15h6L71,62.05c.58,1.2,1.06,2.39,1.06,2.39h.11s.53-1.29,1.06-2.39l1.6-3.12h6l-5.38,9.15,5.36,9H74.91l-1.68-3.2c-.59-1.12-1.09-2.32-1.09-2.32H72S71.55,72.75,71,73.9l-1.68,3.2h-5.9Z"/></g></g></svg>